HIERARCHY
ROOT joint_Root
{
	OFFSET 0.0 0.0 0.0
	CHANNELS 6 Xposition Yposition Zposition Zrotation Xrotation Yrotation 
	JOINT Hips
	{
		OFFSET -17.1583 93.1646 452.98
		CHANNELS 6 Xposition Yposition Zposition Zrotation Xrotation Yrotation 
		JOINT Spine
		{
			OFFSET 15.7357 0.0 0.0
			CHANNELS 6 Xposition Yposition Zposition Zrotation Xrotation Yrotation 
			JOINT Chest
			{
				OFFSET 8.98455 -0.406207 0.0
				CHANNELS 6 Xposition Yposition Zposition Zrotation Xrotation Yrotation 
				JOINT Neck
				{
					OFFSET 16.3773 0.0 0.0
					CHANNELS 6 Xposition Yposition Zposition Zrotation Xrotation Yrotation 
					JOINT Head
					{
						OFFSET 6.45672 0.0 0.0
						CHANNELS 6 Xposition Yposition Zposition Zrotation Xrotation Yrotation 
						End Site
						{
							OFFSET 0.0 0.0 0.0
						}
					}
				}
				JOINT Shoulder_L
				{
					OFFSET 12.9942 -0.242716 4.98039
					CHANNELS 6 Xposition Yposition Zposition Zrotation Xrotation Yrotation 
					JOINT UpperArm_L
					{
						OFFSET 5.34809 0.0 0.0
						CHANNELS 6 Xposition Yposition Zposition Zrotation Xrotation Yrotation 
						JOINT LowerArm_L
						{
							OFFSET 24.3286 1.87007e-05 0.0
							CHANNELS 6 Xposition Yposition Zposition Zrotation Xrotation Yrotation 
							JOINT Hand_L
							{
								OFFSET 22.2916 0.0 0.0
								CHANNELS 6 Xposition Yposition Zposition Zrotation Xrotation Yrotation 
								End Site
								{
									OFFSET 0.0 0.0 0.0
								}
							}
						}
					}
				}
				JOINT Shoulder_R
				{
					OFFSET 12.9945 -0.242716 -4.98039
					CHANNELS 6 Xposition Yposition Zposition Zrotation Xrotation Yrotation 
					JOINT UpperArm_R
					{
						OFFSET -5.34813 0.0 0.0
						CHANNELS 6 Xposition Yposition Zposition Zrotation Xrotation Yrotation 
						JOINT LowerArm_R
						{
							OFFSET -24.3289 0.000322201 0.0
							CHANNELS 6 Xposition Yposition Zposition Zrotation Xrotation Yrotation 
							JOINT Hand_R
							{
								OFFSET -22.2915 -0.000108084 0.0
								CHANNELS 6 Xposition Yposition Zposition Zrotation Xrotation Yrotation 
								End Site
								{
									OFFSET 0.0 0.0 0.0
								}
							}
						}
					}
				}
			}
		}
		JOINT UpperLeg_L
		{
			OFFSET -2.19248 -6.46944 0.0
			CHANNELS 6 Xposition Yposition Zposition Zrotation Xrotation Yrotation 
			JOINT LowerLeg_L
			{
				OFFSET 39.0811 0.0 -1.23785e-05
				CHANNELS 6 Xposition Yposition Zposition Zrotation Xrotation Yrotation 
				JOINT Foot_L
				{
					OFFSET 40.9854 0.0 -1.26872e-05
					CHANNELS 6 Xposition Yposition Zposition Zrotation Xrotation Yrotation 
					JOINT Toes_L
					{
						OFFSET 11.7543 0.0 0.0
						CHANNELS 6 Xposition Yposition Zposition Zrotation Xrotation Yrotation 
						End Site
						{
							OFFSET 0.0 0.0 0.0
						}
					}
				}
			}
		}
		JOINT UpperLeg_R
		{
			OFFSET -2.19251 6.46944 0.0
			CHANNELS 6 Xposition Yposition Zposition Zrotation Xrotation Yrotation 
			JOINT LowerLeg_R
			{
				OFFSET -39.0811 -0.00228153 -0.0401928
				CHANNELS 6 Xposition Yposition Zposition Zrotation Xrotation Yrotation 
				JOINT Foot_R
				{
					OFFSET -40.9854 0.0 0.0
					CHANNELS 6 Xposition Yposition Zposition Zrotation Xrotation Yrotation 
					JOINT Toes_R
					{
						OFFSET -11.7543 0.0 0.0
						CHANNELS 6 Xposition Yposition Zposition Zrotation Xrotation Yrotation 
						End Site
						{
							OFFSET 0.0 0.0 0.0
						}
					}
				}
			}
		}
	}
}
MOTION
Frames:	4
Frame Time:	0.0333333
0.000000 0.000000 0.000000 0.000000 0.000000 -0.000000 -232.284000 90.146000 243.348000 73.124400 87.384100 15.127900 15.735700 0.000005 -0.000001 119.695000 84.982800 -118.856000 8.984550 -0.406207 -0.000000 0.919863 4.918830 1.636780 16.377300 -0.000001 -0.000001 -0.398232 3.657080 -2.637380 6.456720 -0.000001 -0.000000 -11.939000 1.314000 -2.693870 12.994200 -0.242716 4.980390 -93.678500 9.040460 -67.748400 5.348090 -0.000007 -0.000001 -45.660500 -22.312600 12.490200 24.328600 0.000019 0.000005 3.522820 20.325200 -10.050300 22.291600 -0.000001 0.000005 9.379510 4.827650 10.791500 12.994500 -0.242716 -4.980390 88.465600 5.117110 -73.283400 -5.348130 -0.000001 -0.000004 -52.832100 18.053700 -29.720800 -24.328900 0.000322 -0.000009 -3.621790 -2.396040 -56.546400 -22.291500 -0.000108 -0.000004 5.054850 5.439540 -4.269480 -2.192480 -6.469440 -0.000000 -178.656000 -7.164880 -25.235900 39.081100 -0.000007 -0.000012 -0.000075 0.000704 6.037680 40.985400 -0.000006 -0.000013 -8.464490 11.618000 -60.117500 11.754300 -0.000000 0.000003 0.002480 0.079206 -13.364500 -2.192510 6.469440 -0.000001 176.105000 10.961100 -170.590000 -39.081100 -0.002282 -0.040193 -0.063234 0.166471 21.790600 -40.985400 0.000008 0.000006 -8.665770 2.498620 -67.600400 -11.754300 -0.000006 -0.000006 -0.006487 -0.075198 -19.634000
0.000000 0.000000 0.000000 0.000000 0.000000 -0.000000 -228.020000 89.189700 242.864000 71.969700 86.503100 16.048900 15.735700 0.000005 -0.000001 119.882000 84.943800 -118.974000 8.984550 -0.406207 -0.000000 0.968073 4.982250 1.771840 16.377300 -0.000001 -0.000001 -1.406170 3.863100 -2.272070 6.456720 -0.000001 -0.000000 -12.670100 2.035680 -2.542900 12.994200 -0.242716 4.980390 -93.779100 9.570640 -68.333200 5.348090 -0.000007 -0.000001 -46.927400 -22.214600 11.785900 24.328600 0.000019 0.000005 3.051940 19.968400 -8.873530 22.291600 -0.000001 0.000005 10.189300 4.793890 11.432200 12.994500 -0.242716 -4.980390 88.460000 5.241400 -73.600700 -5.348130 -0.000001 -0.000004 -53.478000 17.253400 -29.375100 -24.328900 0.000322 -0.000009 -3.255230 -2.207010 -55.887900 -22.291500 -0.000108 -0.000004 5.203380 5.447900 -4.564650 -2.192480 -6.469440 -0.000000 -179.930000 -8.779140 -29.508000 39.081100 -0.000007 -0.000012 -0.006221 0.022397 15.523100 40.985400 -0.000006 -0.000013 -2.835610 12.553300 -65.476000 11.754300 -0.000000 0.000003 0.002479 0.078936 -13.375500 -2.192510 6.469440 -0.000001 175.386000 10.008000 -169.926000 -39.081100 -0.002282 -0.040193 -0.067035 0.152743 24.729100 -40.985400 0.000008 0.000006 -8.927520 2.774070 -66.783600 -11.754300 -0.000006 -0.000006 -0.021677 -0.176408 -23.783700
0.000000 0.000000 0.000000 0.000000 0.000000 -0.000000 -223.473000 88.503600 242.174000 86.206500 86.598100 0.357006 15.735700 0.000005 -0.000001 119.112000 85.512800 -118.606000 8.984550 -0.406207 -0.000000 0.057691 4.331040 1.010390 16.377300 -0.000001 -0.000001 -1.851700 3.931770 -1.648750 6.456720 -0.000001 -0.000000 -14.048400 2.689400 -2.008770 12.994200 -0.242716 4.980390 -93.856900 10.063800 -68.903200 5.348090 -0.000007 -0.000001 -49.245500 -21.052100 10.266200 24.328600 0.000019 0.000005 2.451260 20.324400 -7.026070 22.291600 -0.000001 0.000005 10.642500 4.757680 12.107100 12.994500 -0.242716 -4.980390 88.218200 5.863790 -73.065200 -5.348130 -0.000001 -0.000004 -54.616800 17.354900 -28.139700 -24.328900 0.000322 -0.000009 -2.830880 -2.090790 -53.568100 -22.291500 -0.000108 -0.000004 5.181830 5.446660 -4.520540 -2.192480 -6.469440 -0.000000 178.176000 -8.059390 -35.249900 39.081100 -0.000007 -0.000012 0.068892 -0.143816 25.595500 40.985400 -0.000006 -0.000013 0.200055 13.589600 -57.272100 11.754300 -0.000000 0.000003 0.002444 0.072745 -13.626400 -2.192510 6.469440 -0.000001 173.894000 9.162840 -170.874000 -39.081100 -0.002282 -0.040193 -0.040578 0.082797 27.924600 -40.985400 0.000008 0.000006 -9.016040 1.972600 -64.143400 -11.754300 -0.000006 -0.000006 -0.053775 -0.310976 -29.394400
0.000000 0.000000 0.000000 0.000000 0.000000 -0.000000 -218.443000 88.024100 241.378000 103.096000 85.937900 -17.193300 15.735700 0.000005 -0.000001 116.427000 86.093700 -116.512000 8.984550 -0.406207 -0.000000 -0.766949 3.482660 -0.148381 16.377300 -0.000001 -0.000001 -2.172250 4.221350 -1.047820 6.456720 -0.000001 -0.000000 -14.507300 3.317820 -0.697870 12.994200 -0.242716 4.980390 -93.955600 10.532400 -69.278900 5.348090 -0.000007 -0.000001 -51.829800 -18.640800 8.545910 24.328600 0.000019 0.000005 1.866030 21.020400 -5.189660 22.291600 -0.000001 0.000005 8.816940 4.724140 12.721700 12.994500 -0.242716 -4.980390 87.940400 6.671240 -72.799300 -5.348130 -0.000001 -0.000004 -57.009700 17.745200 -25.227100 -24.328900 0.000322 -0.000009 -1.861950 -1.581770 -49.646400 -22.291500 -0.000108 -0.000004 4.732150 5.439480 -4.267430 -2.192480 -6.469440 -0.000000 177.717000 -4.513620 -36.786300 39.081100 -0.000007 -0.000012 0.156504 -0.250305 32.015800 40.985400 -0.000006 -0.000013 1.548440 9.951270 -55.526600 11.754300 -0.000000 0.000003 0.002437 0.095698 -12.695900 -2.192510 6.469440 -0.000001 172.806000 6.252030 -172.114000 -39.081100 -0.002282 -0.040193 0.013305 -0.015954 32.099500 -40.985400 0.000008 0.000006 -7.957800 -1.032510 -58.531500 -11.754300 -0.000006 -0.000006 -0.118340 -0.487952 -37.037400
